# xmcd CD database file
#
# Track frame offsets:
#	150
#	22229
#	44669
#	46543
#	60657
#	62241
#	80536
#	81720
#	97375
#	98524
#	130359
#	131111
#	153755
#	155931
#	173493
#	177758
#	187830
#	199461
#	206238
#	217864
#	234641
#	235624
#	250482
#	285988
#	289805
#	305475
#	306888
#
# Disc length: 4341 seconds
#
# Revision: 8
# Processed by: cddbd v1.5.2PL0 Copyright (c) Steve Scherf et al.
# Submitted via: CDex 1.51
#
DISCID=8f10f31b
DTITLE=Handel - Il Trionfo del Tempo e del Disinganno  (Emmanuelle Haïm, Le Concert D'Astrée)  [CD 1-2]
DYEAR=2007
DGENRE=Classique
TTITLE0=Sonata - Allegro-Adagio-Allegro
TTITLE1=Parte I - Aria (Bellezza): Fido specchio, in te vagheggio
TTITLE2=Parte I - Recit (Piacere, Bellezza): Io, che sono il Piacere
TTITLE3=Parte I - Aria (Piacere): Fosco genio, e nero duolo
TTITLE4=Parte I - Recit (Tempo, Disinganno): Ed io, che 'l Tempo sono
TTITLE5=Parte I - Aria (Disinganno): Se la belleza perde vaghezza
TTITLE6=Parte I - Recit (Piacere, Bellezza, Tempo, Disinganno): Dunque si prendan l'armi
TTITLE7=Parte I - Aria (Bellezza): Una schiera di piaceri
TTITLE8=Parte I - Recit (Tempo): I colossi del sole
TTITLE9=Parte I - Aria (Tempo): Urne voi, che racchiudete
TTITLE10=Parte I - Recit (Piacere): Sono troppo crudeli i tuoi consigli
TTITLE11=Parte I - Duetto (Bellezza, Piacere): Il voler nel fior degl' anni
TTITLE12=Parte I - Recit (Disinganno, Bellezza): Della vita mortale
TTITLE13=Parte I - Aria (Bellezza): Un pensiero nemico di pace
TTITLE14=Parte I - Recit (Disinganno, Piacere, Bellezza): Folle, tu nieghi il Tempo
TTITLE15=Parte I - Aria (Tempo): Nasce l'uomo
TTITLE16=Parte I - Aria (Disinganno): L'uomo sempre se stesso distrugge
TTITLE17=Parte I - Recit (Piacere): Questa è la reggia mia
TTITLE18=Parte I - Sonata (Bellezza): Taci - qual sono ascolto ¿
TTITLE19=Parte I - Aria (Piacere): Un leggiadro giovinetto
TTITLE20=Parte I - Recit (Bellezza): Ha nella destra l'ali
TTITLE21=Parte I - Aria (Bellezza): Venga il Tempo
TTITLE22=Parte I - Aria (Disinganno): Crede l'uom ch'egli riposi
TTITLE23=Parte I - Recit (Tempo, Bellezza): Tu credi che sia lunghi
TTITLE24=Parte I - Aria (Disinganno, Tempo): Folle, dunque tu sola presumi
TTITLE25=Parte I - Recit (Disinganno, Tempo): La reggia del Piacere vedesti
TTITLE26=Parte I - Quartetto (Bellezza,Piacere,Disinganno,Tempo): Se non sei più ministro di pene
EXTD=YEAR: 2007
EXTT0=
EXTT1=
EXTT2=
EXTT3=
EXTT4=
EXTT5=
EXTT6=
EXTT7=
EXTT8=
EXTT9=
EXTT10=
EXTT11=
EXTT12=
EXTT13=
EXTT14=
EXTT15=
EXTT16=
EXTT17=
EXTT18=
EXTT19=
EXTT20=
EXTT21=
EXTT22=
EXTT23=
EXTT24=
EXTT25=
EXTT26=
PLAYORDER=
